<?xml version="1.0" encoding="UTF-8"?>
<svg version="1.1" viewBox="0 0 1600 1596" width="1280" height="1280" xmlns="http://www.w3.org/2000/svg">
<path transform="translate(0)" d="m0 0h1600v1596h-1600z" fill="#1EB99E"/>
<path transform="translate(827,738)" d="m0 0h63l282 1 170 1-1 4-14 25-8 13-14 24-12 20-10 17-14 23-16 28-12 20-11 19-14 24-15 26-17 28-15 26-10 17-13 22-17 29-10 17-17 29-13 22-5 8-2 1h-81l-295-2h-137l-19 32-15 26-13 22-15 26-16 27-12 21-14 24-15 26-13 22-15 26-14 24-8 13v1h362l49 1 292 1h145l6-9 13-23 13-22 14-24 15-26 13-22 14-24 15-26 28-48 15-26 13-22 14-24 15-26 10-17 28-48 17-29 10-17 28-48 12-21 13-22 30-52 11-18 4-6h1v724h-1600v-817l4 4 32 56 10 17 10 18 16 27 10 18 14 24 10 18 11 19 21 36 3 9 328 2 52 1 111 1h24l4-4 11-20 16-27 10-17 15-26 10-17 15-26 16-27 13-23 14-24 17-29 14-24 12-21z"/>
<path transform="translate(685)" d="m0 0h915v606l-4-4-15-26-13-23-45-78-11-19-2-4-86-1h-432l-10 18-15 25-15 26-13 23-8 13-15 26-9 15-11 19-13 23-9 15-15 26-17 29-10 17-5 10-2 1h-181l-293-1-36-1 1-4 12-22 12-21 14-24 15-26 14-24 16-28 14-25 10-17 15-26 9-16 15-26 16-28 15-26 14-25 14-24 10-18 10-17 14-25 10-17 3-5 520-1 6-12 10-17 17-29 16-27 13-23 10-17 14-24 10-17 9-15 15-26 16-28 10-17 12-21 6-10v-2l-199-1-65-1-271-1-32-1z"/>
<path transform="translate(1268,872)" d="m0 0 4 1 4 6v2l9 2 13 8 11 5 10 5 10 4 12 8 18 14 19 10 10 5 1 2 12 6 9 6 16 10 10 3 9 6 15 11 8 7 14 6 10 4 5 4 4 4 1 9 6 4-1 7-10 17-13 22-17 29-70 120-10 17-15 26-28 48-15 26-17 29-16 27-9 16-16 27-16 28-6 9-1 1h-145l-292-1-49-1h-362l-1-2 9-15 15-26 13-22 15-26 13-22 15-26 14-24 15-26 14-24 17-29 15-26 14-23 1-1h137l295 2h83l2-5 15-25 15-26 16-27 14-24 13-22 10-17 15-26 14-23 14-24 15-26 14-24 12-20 5-9 3-1 6-9z" fill="#0CD586"/>
<path transform="translate(403)" d="m0 0h282l32 1 271 1 65 1 199 1v4l-15 27-16 27-13 23-15 26-9 15-28 48-11 19-14 24-17 29-14 24-10 17-2 4-520 1-11 20-14 24-10 18-10 17-9 16-12 21-4 5h-8v2h-4l-1-6 1-2-4-1-6-3-2-2-9-2-5-4-9-4-11-12-9-6-10-4-14-5-18-12-10-8-14-6-2-3-10-5-4-3-1-4-7-7-11-6-16-9-14-9-15-7-12-4-9-4-6-4-6-8-6 10-2 3-2-1 10-17 15-26 13-22 12-21 10-17 42-72 17-29 15-26 10-17 15-26z" fill="#813ADA"/>
<path transform="translate(992,450)" d="m0 0h432l86 1 12 21 14 24 15 26 16 28 14 24 10 18 9 14v266l-12 19-15 26-12 21-17 29-11 19-14 24-10 17-1-3-5-2-3-5v-6l-3-3-5-4-14-6-10-4-10-9-14-10-8-5-12-4-14-9-9-6-8-4-5-3v-2l-9-3-8-5-15-8-12-10-5-4-5-3-11-6-13-5-5-3-14-7-8-5-7-2-5-8-4 1-6 9-2-1 13-23 8-13 13-22 12-20 10-17 6-10 11-19 9-15 1-3h-170l-282-1h-63l-1 2h-2l1-5h2l2-6 11-20 12-20 15-26 13-22 14-24 9-16 10-17 16-27 8-14 10-17 13-23 15-25 14-24z" fill="#813ADA"/>
<path transform="translate(1268,872)" d="m0 0 4 1 4 6v2l9 2 13 8 11 5 10 5 10 4 12 8 18 14 19 10 10 5 1 2 12 6 9 6 16 10 10 3 9 6 15 11 8 7 14 6 10 4 5 4 4 4 1 9 6 4-1 7-10 17-13 22-17 29-70 120-10 17-15 26-28 48-15 26-17 29-16 27-9 16-9 15-1-3 5-10v-10h-2l-7 2-2 4-7 1-2 5-9-2-5-4-4-2-2-3-6-4-2-3-6-2-2-4-4-1-4-5-3-1-10-1-6-2v-2h-2v-2l-12-2-3-6h-6v-2l-4-1-10-4-2-3-5-4-4-4-3-2v-3l-6 1v-2h-2v-2l-5-1-4-4-5-1-3-2-8-2-11-6-1-3h-2v-2l-3 1-4-2-2-5-5-2-8-6-14-4h-3l-4-4-9-3-5-5-3-6-9-4-4-1-6-7-5-2v-2l-4-2-6-1-4-4-7-2-4-3-5-2-3-2v-2h-5l-6-4v-3h-2l-2-6-4-2-1-4 1-2h-2l-2-5-1-8 1-5-6-2 1-4-2-3 3-1 3-3 5-1 4 1 1-2 8-1 6-2h3v-3l-8-1h-5l-4-1-17-2-11-1v-1l-86-1v-1h228l2-5 15-25 15-26 16-27 14-24 13-22 10-17 15-26 14-23 14-24 15-26 14-24 12-20 5-9 3-1 6-9z" fill="#1EB99E"/>
<path transform="translate(0)" d="m0 0h403l-2 6-15 26-17 29-15 26-17 29-16 27-12 21-11 18-6 11-12 21-13 22-14 24-8 14-6 10-11 19-10 17-28 48-14 25-26 44-30 52-9 15-24 42-10 17-15 26-14 24-9 15-28 49-10 16h-1z"/>
<path transform="translate(28,657)" d="m0 0 5 1v5l-4 8 2 6 5 2v3l2 1 1 4 2 1v2h2l4 4v2h2l3 4h5l3 5 4 1 2-1v2l4 1 3 2 1 3 5-1 3 2v2h2l2 3 8 3 4 4 5 1 3 3v2l4 1 13 5v3l11 2 6-1 1 3 6-1 9 7 3 1v2h2l1 4 3-1v2l4 1v2l5 1 13 7 4 2 4 1v2l7 1 5 5 1 3 5 1 9 9 8 3 2 6 5 1 5 6v2l5 2 2 4 7 2 3 3 5 2 1 2 9 3 5 3 3 3 7 2 4 4 10 3h6l6 5 5 1 2 4 5 1 6 4 5 1 6 3 10 3 5 3 11 6 2 5 4 2 5-1-1 2-2 2v2l6 1 1-3 2 1v3l4 2 7 2v2h3l2 4 14 3 6 5v2l5 2v2h2v2l4 2 1 3h-2v2l3 1v5l9 1 3 3 8 3-1 3 10 2 6 2v2l4 1 1 3 3 1 1 2 5 3 7 3 10 5v2h2l2 5 4-1 5 5 3 2v2l10 2 5 2 1 3h2v3h8l6 4v4l7-1 5 3v2l4-1-1 5 5-3h4l2 4h9l2 2v3l5 1 4 3 9 3-1 3 2 2h-3v3l6 1v1h12l6 1v1h-106l-52-1-326-2-3-3-7-14-22-38-15-26-14-25-10-17-15-26-24-42-14-24-13-23-6-9v-86l12-19h3v-2h2l2-6 1-2h3l2-4z" fill="#0CD586"/>
<path transform="translate(252,263)" d="m0 0 2 4 5 6 16 8 15 5 15 8 16 10 11 6 10 6 8 8v3l15 9v2l10 3 7 4v2l5 2 7 6 15 9 20 7 10 6 15 15 9 4 2 2 9 2 5 4 7 3v8h4v-2l8-1-1 5-14 24-14 25-14 24-10 18-14 24-12 21-15 26-14 25-3 3-1-2 2-5v-7-2l-4 1-6 1h-3l-6 4h-2v-2h-4l-12-4-6 1v-2l-5-1v-3l-4-2-5-4-3-4h-6l-8-5-4-3-7-1-1-4-5-1-6-3-4-4-8-4-6-4-4-5-7-2-7-4-9-3-10-4-6-7-8-3-1-2-7-1-9-8-3-2-6-1v-2l-4-1-6-5v-2l-5-1v-2l-5-2-11-7-14-12-2-1v-2h-2l-1-4-3-1-1-5 4-10h2l3-10-12 21-8 13-1-2 14-25 15-25 15-26 14-24 9-16 28-48 10-17 6-11h3l2-5 3-5z" fill="#6076C7"/>
<path transform="translate(1268,872)" d="m0 0 4 1 4 6v2l9 2 13 8 11 5 10 5 10 4 12 8 18 14 19 10 10 5 1 2 12 6 9 6 16 10 10 3 9 6 15 11 8 7 14 6 10 4 5 4 4 4 1 9 6 4-1 7-10 17-13 22-17 29-56 96-10 17h-2l1-5-1-5 2-7-8 1-5-1-6-1-2 1-2-2-16-4-9-3-11-4-7-1-1-4-5-1-6-5-6-2-9-7-2-4-10-5-5-3-4-1v-2l-5-2-11-1v-2l-3 1-2-4-9-3-14-7-9-3-3-6v-3l-8 1-2-5-5-4-6-3-3-3-5-2-4-4-9-3-3-3-1-2-2 2-9-4-9-3v-2l-7-1-1-4 1-7-2-1v-2l-2-1 1-2h-2l2-5 14-24 15-26 14-23 14-24 15-26 14-24 12-20 5-9 3-1 6-9z" fill="#6076C7"/>
<path transform="translate(197,357)" d="m0 0h1v11l-1 4 4 2 9 6 3 3v2l4 1 5 3 5 5 8 4v2h2v2l4 2 5 3 4 4 3 1v2l8 1 1 3 5 1 4 3 5 3 7 7 9 3 5 5 10 3 10 4 17 5 11 4 3 3 7 3 3 2 3 9 8 6 10 3 6 4 12 3 9 4 9 3 10 4 5 4 5 1 3 4 5-1-1 5-15 26-14 24-14 25-11 19-2-2 2-5v-7-2l-4 1-6 1h-3l-6 4h-2v-2h-4l-12-4-6 1v-2l-5-1v-3l-4-2-5-4-3-4h-6l-8-5-4-3-7-1-1-4-5-1-6-3-4-4-8-4-6-4-4-5-7-2-7-4-9-3-10-4-6-7-8-3-1-2-7-1-9-8-3-2-6-1v-2l-4-1-6-5v-2l-5-1v-2l-5-2-11-7-14-12-2-1v-2h-2l-1-4-3-1-1-5 4-10h2l3-10-12 21-8 13-1-2 14-25 15-25 15-26 14-24 6-11z" fill="#3E96B8"/>
<path transform="translate(1212,963)" d="m0 0h3l-1 6-1 4v10l3 6 10 7 10 4 11 7 16 7 9 1 6 5 5 2 5 4 7 2 5 4 8 5 10 3 1 3 5 1v2h7l5 2 1 2 5 3 11 8 3 5 7 2 5 2 7 4 7 3 4 3 9 4 8 5 13 13 13 2 5 1 5-1 5 6v2h2v2h2l2-4 3-4 2 1-2 8v2h2l1-2-1 4-9 16-14 24-15 26-10 17-6 10h-2l1-5-1-5 2-7-8 1-5-1-6-1-2 1-2-2-16-4-9-3-11-4-7-1-1-4-5-1-6-5-6-2-9-7-2-4-10-5-5-3-4-1v-2l-5-2-11-1v-2l-3 1-2-4-9-3-14-7-9-3-3-6v-3l-8 1-2-5-5-4-6-3-3-3-5-2-4-4-9-3-3-3-1-2-2 2-9-4-9-3v-2l-7-1-1-4 1-7-2-1v-2l-2-1 1-2h-2l2-5 14-24 15-26 14-23 13-22z" fill="#3E96B8"/>
<path transform="translate(0,884)" d="m0 0 4 4 26 44 9 16 28 48 12 21 14 24 12 21 10 18-2 6-8 13-28 48-17 29-28 48-17 29-11 19-2 4h-2z" fill="#0CD586"/>
<path transform="translate(910,590)" d="m0 0h2l-4 12 4 9 16 6 5 3 7 4 5 1 7 6 4 1 5 5 13 8 8 4 8 5 6 5 6 4 10 7 14 7 11 7 9 7 12 8 5 3 17 10 10 7 4 5-5 4v8l10 1v1l-61 1h-211l-1 2h-2l1-5h2l2-6 11-20 12-20 15-26 13-22 14-24 9-16z" fill="#7B4BD7"/>
<path transform="translate(1287,70)" d="m0 0 4 1 7 10 10 18 28 49 15 26 14 25 14 24 16 28 15 26 14 24 12 21 15 26 16 28 6 11-1 2h-53l-3-3-15-27-10-17-40-70-10-17-16-28-14-24-14-25-13-22-10-18-8-13-5-9 1-5 24-40z" fill="#813ADA"/>
<path transform="translate(1296,819)" d="m0 0h2l-3 9-1 4 5 8 5 3 12 7 17 8 17 6 15 9 10 5 1 3 5 1 4 3v2l6 1 5 4 4 4 5 4 5 5 8 6 12 5 7 2 8 4 8 7 11 8 6 5 9 3 4 3v3l7 2 10 7 9 7 6 4 4 7 2 2v3l5 3 3-1 2 1-1 5-15 26-6 10-1-3-5-2-3-5v-6l-3-3-5-4-14-6-10-4-10-9-14-10-8-5-12-4-14-9-9-6-8-4-5-3v-2l-9-3-8-5-15-8-12-10-5-4-5-3-11-6-13-5-5-3-14-7-8-5-7-2-5-8-4 1-6 9-2-1 13-23 8-13 13-22z" fill="#7B4BD7"/>
<path transform="translate(277,217)" d="m0 0 2 1-4 11 1 6h2l3 3 11 2 12 5 15 8 7 2v2l7 2 5 4 11 7 7 5 12 5 9 4v2l5 2 4 4v2h2l2 5 5 1 15 12 12 7 8 6 9 3v2l10 3 1 1 9 2 6 4v2l4 2 7 5 4 5v2l3 1v2l4 2 6 6 5 3 5 6 2 6 5-2h4l1 5-13 23-4 5h-8v2h-4l-1-6 1-2-4-1-6-3-2-2-9-2-5-4-9-4-11-12-9-6-10-4-14-5-18-12-10-8-14-6-2-3-10-5-4-3-1-4-7-7-11-6-16-9-14-9-15-7-12-4-9-4-6-4-6-8-6 10-2 3-2-1 10-17 15-26z" fill="#7B4BD7"/>
<path transform="translate(598,736)" d="m0 0h195l32 1-1 7-10 18-10 17-14 24-15 25-7-1v-5-2h-9l-11 2-9-1-7-1-5-6-10-5-6-2-6-3-3-7-5-1v2h-3l-2-7-6-7v-2h-5v-2l-5-2-4-4v-2l-5-2-6-4-1-4-7-2-5-5-3-10 4-2 3-3h3v-2l-57-1z" fill="#3F95B8"/>
<path transform="translate(885,636)" d="m0 0 2 3 6 10 6 3 15 10 7 3 10 6 10 9 7 3 3 2v2l4 1 9 4 9 8 6 2 5 6v2h2v2h2v2l5 2 8 4 7 2 1 6-3 1v3h-2l3 3v2l2 1-57 1h-125l-1 2h-2l1-5h2l2-6 11-20 12-20 15-26 13-22z" fill="#6076C7"/>
<path transform="translate(1280,851)" d="m0 0 3 3v2h2v4l9 2 1 3 10 2 6 3 4 3 8 4 6 5 17 9 3 2v2l5 2 7 4 11 6 7 2 11 6 12 10 8 6v2l8 4v2l4 1 8 3 7 2 9 5 10 7 5 5 6 4 6 3 8 6 6 2 2 1v2l7 1 6 5 1 7-1 2v8l-1 5-2 1-6-4-7-4-12-4-10-6-9-8-11-8-8-5-12-4-14-9-9-6-8-4-5-3v-2l-9-3-8-5-15-8-12-10-5-4-5-3-11-6-13-5-5-3-14-7-8-5-7-2-5-8-2-1 1-5 3-4 3-5z" fill="#735CD2"/>
<path transform="translate(263,244)" d="m0 0 3 9 3 3 5 2v3l5 1 10 6 7 3 5 3 22 7 12 5 9 5 4 4 7 4 6 5 4 5 5 3 2 3 8 3 8 6 5 2v2l6 2 6 4 5 5 8 6 13 6 6 2 13 7 3 2v2l4 1 5 5 11 7 8 4 5 4 3 3-1 4v4l-2 5v6l-4-1-6-3-2-2-9-2-5-4-9-4-11-12-9-6-10-4-14-5-18-12-10-8-14-6-2-3-10-5-4-3-1-4-7-7-11-6-16-9-14-9-15-7-12-4-9-4-6-4-5-6v-6z" fill="#735CD2"/>
<path transform="translate(894,621)" d="m0 0 4 4 2 3v4l4 1 6 5 5 2v2l5 1 10 5 7 3 11 6 2 1v3l7 2 10 5 11 9 9 5 3 2 9 3 10 6 7 4 5 2 5 6 15 12 5 2 4 4 1 4-1 2h-3l3 7-10 1h-19l-3 1h-9l-2-1v-2l-3-1 2-6h3v-2l-2-1 1-3-7-1-10-5-3-2v-2h-2v-2h-2l-6-8-6-2-9-8-12-5-3-3-8-4-10-9-9-5-10-5-11-7-4-3-4-2-7-11-2 1 2-6 5-5z" fill="#735CD2"/>
<path transform="translate(1279,851)" d="m0 0 1 2-4 6-9 15-6 9-2-1 13-23 4-6z" fill="#7D45D8"/>
<path transform="translate(501,403)" d="m0 0h1l-1 7-3 3-4-2 3-6z" fill="#735AD2"/>
<path transform="translate(910,590)" d="m0 0h2l-2 6-2 5-5 3 2-5z" fill="#7E43D8"/>
<path transform="translate(1267,868)" d="m0 0 1 2-6 12h-3z" fill="#7F3FD9"/>
</svg>
